<?xml version="1.0" encoding="utf-8"?>
<!-- Generator: Adobe Illustrator 18.0.0, SVG Export Plug-In . SVG Version: 6.00 Build 0)  -->
<!DOCTYPE svg PUBLIC "-//W3C//DTD SVG 1.1//EN" "http://www.w3.org/Graphics/SVG/1.1/DTD/svg11.dtd">
<svg version="1.1" id="Layer_1" xmlns="http://www.w3.org/2000/svg" xmlns:xlink="http://www.w3.org/1999/xlink" x="0px" y="0px"
	 viewBox="0 0 640 480" enable-background="new 0 0 640 480" xml:space="preserve">
<g id="Grime_Vector_Pack_10">
	<path fill-rule="evenodd" clip-rule="evenodd" d="M129.7,167.4C121.4,177.8,142.4,172.3,129.7,167.4L129.7,167.4z M102.5,335.8
		c2,1.3,8.3,5.6,9.2,1C110.4,335.3,103.1,331.5,102.5,335.8z M142.1,340.9c8.6,2.8,17.2-4.8,15.7-16
		C145.2,302.8,121.7,334.3,142.1,340.9z M222.1,124.2c1.8-5.3-3.4-10.8-5.9-11.5C218.8,116.2,218.4,121.2,222.1,124.2z M255.1,164.5
		c-2.4-4.3-2.3-9.9-3.9-14.7c0-3.2,1.2-2.9,1.1-6.4c-5.1-1.8-3.2-13.8-7.9-11.2C247.9,142.6,247.5,158.7,255.1,164.5z M378.5,159
		c-2.8,0.3-8.1,3-6.9,6.4C373.9,163.1,377.3,163.1,378.5,159z M366.8,219.4c0.6-3.2-0.7-5.5-2.4-7.5
		C364.6,214.8,363.6,218.2,366.8,219.4z M350,355.8c1.5-2.7-0.4-3.6-2.4-4.6C347,353.4,347.8,354.9,350,355.8z M575.8,132.2
		c-6.3-3.2-10.7,3.1-15.2,5.7c-23.7,13.6-51.4,18.7-74,33.7c-13.9,6.2-28.8,9.2-43.1,14.9c-8.2,3.2-15.6,8.6-23.8,11.5
		c-12.7,4.6-25.8,7.5-36.8,13.1c-10.4,5.3-31.9,20.7-40.9,8c8.8-14.3,5.7-35.4,20.8-44.1c-4.5-0.7-3.7,2.5-8.4-0.8
		c-5.7,4-8.7,13.1-15.4,15.2c-2.9-3.8-11.5-4.7-13.4-9.1c11.7-10.5,24.1-28.9,25.7-47.3c-8.2,7.4-10.9,29.4-21.2,36.3
		c-1.6-1.3-2.2-3.2-5.5-3.7c-9,5.5-16.1,14.7-27.2,16.2c-1.2-2.2,0.7-3.3,1.7-5.2c-2.5-1.7-2.1,2.5-4.3,1.5c1.1-8.6-3.6-18-3.5-27.9
		c0.1-9.8,5.9-21.7-2.4-28.5c-8.8,6.5-0.7,20.4-2.5,31.8c-0.4,2.4-2.4,4.2-3.1,6.7c-1.8,6.4,0.4,16.1-6.1,19.1
		c-5.4-7.9-13.8-15.3-17-24.6c-1.2-3.4,0.1-9.3-4.4-10c3,12.7,4,26.5,8.8,38.3c-9.6,17.2-22.8,5.8-31.2-4.3
		c-3.2-3.9-7.1-6.5-8.8-8.6c-2.9-3.5-3.6-9.5-6.2-13.5c-4.5-6.9-10.2-12.1-11.7-17.2c-0.9-3.1,0.2-6.6-0.7-9.8
		c-1.1-4.1-5.7-8.3-8.2-13.2c-3-5.7-4.3-12.6-7.1-16.6c-2.3-3.3-6.5-4.6-9-7.7c-8.4-10.1-12.6-23.9-22-30c-3.3,0.1-5.4,2.8-6.3,7.6
		c3.6,9.7,12.8,16.4,16.5,26.3c1.1,3,0,7.1,1.6,10.1c2.5,4.7,7.5,5.7,11.4,9.4c4.7,4.4,6.4,11.9,10.6,17.8c2.2,3.1,6,4.6,8.2,7.4
		c12.6,15.9,17.8,37.7,29.4,51.6c-1.3,5.4,2.8,11.4-2.4,16.5c-3.2-2.2-8.6-3.3-9.3-6.8c-4.7,10.1-12.3,14.7-22,15
		c-8-6.1-19.5-17.1-29.9-17.2c-3.8,8.2,6.2,10,11.1,13.1c12.2,7.7,26.6,19.5,20.3,32.4c1.3,2.4,4.5,0.4,7.8,2.5
		c2.4,5.3-3.5,13.1-7,15.9c-12,9.8-37.6-1.9-40.2,14.9c16.4,17.8,34.5-12.2,55.4,0.5c3.9,6.9,6.9,18.8-4.7,20.5
		c-1.7,4.8,6.3,4.5,4.7,9.2c0.2,3.7-2.9,0.9-3.1,3.8c1.3,0.5,3,0.8,2,2.6c-1.7,12.5-15.3,28.1-3.7,32.4c5.2-5.4,5.5-20.3,16.9-13.8
		c2.1,10.4-7.7,16.5-10.4,26.4c-3.2,3.8-14.5,13.3-7.9,18.5c14.1-8.7,17.7-38,35-40.5c4,7.1,3.5,23.4,1.8,33.2
		c-1.4,8.2-14.4,30.4-5,39.6c9.3,9.1,21.5-6.9,23.2-15.6c2.6-13.9-14.6-26.9-11.4-42c0.8-3.8,3.7-11.3,6.7-15.1
		c3-3.7,15.1-12.7,22-15c8.3-2.7,14.4-4.5,23.4-1.1c13.1,13.3,27.9,22.9,34.2,39.7c2.3,6,0.8,15.7,10,16.6c4.8-5.3,0-11.5-3.9-14.7
		c-2.8-9.4-6.5-18.4-11.6-26.7c0.3-3.6,1.1-7.3,2.8-11.6c4.3-2.4,8.8-4.6,11.1-10.8c1.9-1,3.4,1.9,7,2.2c2.4-1,3.3-4.9,6.3-4.7
		c14.4,2.3,23.9,8.4,37.1,12.8c11.9,4,15.8,14.1,25.6,18.7c10.6,5,14.6,9,23.5,10.4c4.5-2.3,5-6.8,3.6-11.3
		c-12.9-7.2-15.3-18.7-29.7-21c-3.3-0.5-7,1.4-10.7,0.4c-11.4-2.9-21.2-13.8-33.4-18.4c0-7-6.6-10.6-11.4-15.2
		c1.5-2.7,3.5-2.1,2.8-5.8c-1-2.1-5-2.7-5-5.4c2-1.2,1.5-7.4,5.4-5c1.9-3-3.7-3.3-0.3-4.9c9.5-5.4,21.4,10.2,29.5,3.7
		c-1-12.2-24.6-4-25.9-15c3.7-1.2,9.9,2.4,11.5-3c-6.4-3.1-12.6,2.2-19.3,0.5c-3.9-1-7.3-4.9-11.3-6.5c-1.6-0.6-10.8,0.2-9.9-5.1
		c1.6,0.3,3.6,3.8,5.2,1.7c-2.4-1.4-6.1-2.2-6.1-4.8c5-5.9,12.5-6.7,19.8-8c25.8-16.6,54.3-27.9,83.2-38.5c0.9,0.3,0.8,1,1.5,1.4
		c-0.4,1.2-0.2,2,0,2.9c4.1,1.2-0.4-2.3,0.2-3.7c10.8-9.9,25.9-10.2,39.9-14c15-4.1,31.1-15.1,46.2-21.6c11.3-4.8,22-11,32.7-15.4
		C569.8,140.1,578.5,141.1,575.8,132.2z M178.2,51.7c-4.2-5.1-4.6-12.1-8.9-17.2C170.3,40.8,174.2,49.4,178.2,51.7z M200.9,91.5
		c-2.1-2.1-1-5.8-4.4-7.2C196.3,87.2,199.8,91.9,200.9,91.5z M213.8,281.5c-4.6,0.4-14-1-15,1.9
		C203.7,282.5,210.1,284.6,213.8,281.5z M90.2,247.1c4,0.4,6.4-0.8,6.2-4.6C92.4,242.1,90.2,243.6,90.2,247.1z M574.5,288.1
		c2.2,2,3.5,0.6,7.1,0.7c1.3-3,3.6-5,3.6-9.3C579.4,277.5,574,281.6,574.5,288.1z"/>
</g>
</svg>
